<?xml version="1.0" encoding="UTF-8" standalone="no"?>
<svg
   width="16"
   height="16"
   fill="currentColor"
   class="bi bi-check2-circle"
   viewBox="0 0 16 16"
   version="1.1"
   id="svg6"
   sodipodi:docname="check2-circle.svg"
   inkscape:version="1.2.2 (b0a8486541, 2022-12-01)"
   xmlns:inkscape="http://www.inkscape.org/namespaces/inkscape"
   xmlns:sodipodi="http://sodipodi.sourceforge.net/DTD/sodipodi-0.dtd"
   xmlns="http://www.w3.org/2000/svg"
   xmlns:svg="http://www.w3.org/2000/svg">
  <defs
     id="defs10" />
  <sodipodi:namedview
     id="namedview8"
     pagecolor="#ffffff"
     bordercolor="#000000"
     borderopacity="0.25"
     inkscape:showpageshadow="2"
     inkscape:pageopacity="0.0"
     inkscape:pagecheckerboard="0"
     inkscape:deskcolor="#d1d1d1"
     showgrid="false"
     inkscape:zoom="52.125"
     inkscape:cx="8"
     inkscape:cy="8"
     inkscape:window-width="1920"
     inkscape:window-height="1007"
     inkscape:window-x="0"
     inkscape:window-y="0"
     inkscape:window-maximized="1"
     inkscape:current-layer="svg6" />
  <path
     d="M2.5 8a5.5 5.5 0 0 1 8.25-4.764.5.5 0 0 0 .5-.866A6.5 6.5 0 1 0 14.5 8a.5.5 0 0 0-1 0 5.5 5.5 0 1 1-11 0z"
     id="path2" />
  <path
     d="M15.354 3.354a.5.5 0 0 0-.708-.708L8 9.293 5.354 6.646a.5.5 0 1 0-.708.708l3 3a.5.5 0 0 0 .708 0l7-7z"
     id="path4" />
  <path
     style="fill:#00a100;stroke-width:0.0191847;fill-opacity:1"
     d="M 7.8081535,10.44485 C 7.7413717,10.414897 7.3685617,10.053333 6.1617907,8.8481487 5.2484075,7.9359664 4.5846325,7.2583589 4.560442,7.2134293 4.5024152,7.1056549 4.502647,6.8993314 4.5609188,6.7889072 4.6180773,6.6805928 4.7581946,6.5618045 4.8636143,6.5322887 c 0.1043655,-0.02922 0.2672445,-0.015909 0.3572487,0.029196 0.03548,0.017781 0.6753245,0.6421874 1.4218771,1.3875708 L 8.0001086,9.3042977 11.352572,5.9536992 c 2.224673,-2.2234352 3.378279,-3.3633349 3.429203,-3.3884589 0.12005,-0.059229 0.223173,-0.069202 0.346092,-0.033468 0.127495,0.037064 0.265571,0.1538522 0.318253,0.2691871 0.04394,0.096195 0.0467,0.2853108 0.0056,0.3861463 -0.02248,0.055216 -0.944642,0.9895602 -3.592326,3.6397929 -2.8973752,2.9001631 -3.5799797,3.5740564 -3.6580032,3.6113234 -0.1217933,0.05817 -0.2726914,0.06072 -0.3932853,0.0066 z"
     id="path931" />
  <path
     style="fill:#00a100;fill-opacity:1;stroke-width:0.0191847"
     d="M 7.5395683,14.474207 C 4.3353763,14.224435 1.8260358,11.745246 1.5328763,8.5396919 1.5044489,8.2288529 1.521208,7.468603 1.5631699,7.1654676 1.8069483,5.4043967 2.7147639,3.8544625 4.1182567,2.8031101 5.4974112,1.7699892 7.2650718,1.3242136 8.9592326,1.5822938 c 0.6977303,0.1062888 1.2639534,0.2869229 1.9316944,0.6162411 0.326405,0.1609772 0.399596,0.2049603 0.465316,0.2796222 0.07449,0.08462 0.135364,0.2297958 0.135364,0.3228021 0,0.087298 -0.05976,0.2354776 -0.12633,0.3132503 -0.102717,0.1200021 -0.200675,0.1647093 -0.362879,0.1656157 -0.130793,7.307e-4 -0.142292,-0.00333 -0.441247,-0.155731 C 10.207446,2.9437801 10.013155,2.8612004 9.7170264,2.7653158 8.8696434,2.490938 7.9784263,2.421067 7.1188282,2.5616183 6.3300409,2.6905913 5.5985383,2.9798399 4.9342555,3.4254354 3.6013009,4.3195703 2.7593599,5.6827127 2.5294405,7.3189448 c -0.039171,0.2787651 -0.033449,1.1378184 0.00952,1.4292566 0.1173179,0.7957027 0.3748747,1.5064076 0.7871581,2.1720926 0.4249906,0.686203 1.0685834,1.326457 1.7749323,1.765723 1.8168956,1.129898 4.1649004,1.09103 5.9466391,-0.09844 0.323062,-0.215671 0.50617,-0.363069 0.777017,-0.62548 1.026789,-0.994807 1.621602,-2.3109643 1.673552,-3.7031072 0.01309,-0.3508769 0.03886,-0.4610143 0.133789,-0.5719202 0.228455,-0.2668984 0.646869,-0.2166152 0.802895,0.096489 0.04562,0.091541 0.04945,0.1187743 0.04926,0.3497019 -6.64e-4,0.8085314 -0.213638,1.746166 -0.579796,2.5525875 -0.206462,0.45471 -0.529278,0.9787 -0.850977,1.381295 -0.218671,0.27366 -0.747227,0.799652 -1.012121,1.007214 -0.979165,0.767239 -2.0946682,1.229485 -3.3122964,1.372561 -0.304965,0.03583 -0.9036115,0.04957 -1.1894485,0.02729 z"
     id="path2244" />
</svg>
