<?xml version="1.0" encoding="UTF-8" standalone="no"?>
<svg
   width="16"
   height="16"
   fill="currentColor"
   class="bi bi-patch-exclamation"
   viewBox="0 0 16 16"
   version="1.1"
   id="svg6"
   sodipodi:docname="patch-exclamation.svg"
   inkscape:version="1.2.2 (b0a8486541, 2022-12-01)"
   xmlns:inkscape="http://www.inkscape.org/namespaces/inkscape"
   xmlns:sodipodi="http://sodipodi.sourceforge.net/DTD/sodipodi-0.dtd"
   xmlns="http://www.w3.org/2000/svg"
   xmlns:svg="http://www.w3.org/2000/svg">
  <defs
     id="defs10" />
  <sodipodi:namedview
     id="namedview8"
     pagecolor="#ffffff"
     bordercolor="#000000"
     borderopacity="0.25"
     inkscape:showpageshadow="2"
     inkscape:pageopacity="0.0"
     inkscape:pagecheckerboard="0"
     inkscape:deskcolor="#d1d1d1"
     showgrid="false"
     inkscape:zoom="52.125"
     inkscape:cx="8"
     inkscape:cy="8"
     inkscape:window-width="1920"
     inkscape:window-height="1007"
     inkscape:window-x="0"
     inkscape:window-y="0"
     inkscape:window-maximized="1"
     inkscape:current-layer="svg6" />
  <path
     d="M7.001 11a1 1 0 1 1 2 0 1 1 0 0 1-2 0zM7.1 4.995a.905.905 0 1 1 1.8 0l-.35 3.507a.553.553 0 0 1-1.1 0L7.1 4.995z"
     id="path2" />
  <path
     d="m10.273 2.513-.921-.944.715-.698.622.637.89-.011a2.89 2.89 0 0 1 2.924 2.924l-.01.89.636.622a2.89 2.89 0 0 1 0 4.134l-.637.622.011.89a2.89 2.89 0 0 1-2.924 2.924l-.89-.01-.622.636a2.89 2.89 0 0 1-4.134 0l-.622-.637-.89.011a2.89 2.89 0 0 1-2.924-2.924l.01-.89-.636-.622a2.89 2.89 0 0 1 0-4.134l.637-.622-.011-.89a2.89 2.89 0 0 1 2.924-2.924l.89.01.622-.636a2.89 2.89 0 0 1 4.134 0l-.715.698a1.89 1.89 0 0 0-2.704 0l-.92.944-1.32-.016a1.89 1.89 0 0 0-1.911 1.912l.016 1.318-.944.921a1.89 1.89 0 0 0 0 2.704l.944.92-.016 1.32a1.89 1.89 0 0 0 1.912 1.911l1.318-.016.921.944a1.89 1.89 0 0 0 2.704 0l.92-.944 1.32.016a1.89 1.89 0 0 0 1.911-1.912l-.016-1.318.944-.921a1.89 1.89 0 0 0 0-2.704l-.944-.92.016-1.32a1.89 1.89 0 0 0-1.912-1.911l-1.318.016z"
     id="path4" />
  <path
     style="fill:#c30000;stroke-width:0.0191847;fill-opacity:1"
     d="M 7.8657074,8.97122 C 7.6854772,8.9118747 7.5435533,8.7804278 7.4925376,8.6255979 7.475055,8.5725393 7.3905727,7.8077867 7.2813195,6.7136059 7.1229458,5.1274794 7.1017863,4.8739382 7.1188104,4.7663638 7.1948371,4.2859568 7.6715715,3.9351616 8.1357006,4.0181061 8.5192573,4.0866515 8.8216556,4.3901729 8.8811896,4.7663638 8.8982137,4.8739382 8.8770542,5.1274794 8.7186805,6.7136059 8.6094273,7.8077867 8.524945,8.5725393 8.5074624,8.6255979 8.4430614,8.8210515 8.2445996,8.9683008 8.0291508,8.9804829 7.9656359,8.9840742 7.8920863,8.9799058 7.8657074,8.97122 Z"
     id="path862" />
  <path
     style="fill:#c30000;fill-opacity:1;stroke-width:0.0191847"
     d="M 7.7083491,11.943774 C 7.1207531,11.755896 6.8475429,11.093642 7.1287194,10.538767 7.1541287,10.488625 7.2276671,10.39121 7.2921381,10.32229 7.6195828,9.9722506 8.1511392,9.9114506 8.5467626,10.178785 c 0.2896638,0.195734 0.4781473,0.58378 0.4401379,0.906149 -0.047669,0.404297 -0.3221281,0.742545 -0.6963554,0.8582 -0.1597959,0.04939 -0.4288169,0.04968 -0.582196,6.39e-4 z"
     id="path2037" />
  <path
     style="fill:#c30000;fill-opacity:1;stroke-width:0.0191847"
     d="M 7.616307,15.962818 C 7.1660522,15.89787 6.7757399,15.747597 6.3874669,15.489708 6.2508453,15.398964 6.0969594,15.26124 5.7622956,14.930196 L 5.3183561,14.491059 4.6687705,14.486137 C 4.0786212,14.481666 4.0016309,14.477312 3.8273381,14.43856 2.6891649,14.185499 1.8480576,13.367592 1.5782734,12.251534 1.5312892,12.057167 1.5286898,12.017164 1.5207904,11.366906 L 1.5125168,10.685851 1.0674232,10.235012 C 0.59653017,9.7580401 0.48737303,9.6194972 0.31920698,9.2853717 0.21908858,9.0864485 0.11369884,8.7819749 0.06354675,8.5467626 c -0.0494843,-0.2320804 -0.0494843,-0.8614448 0,-1.0935252 C 0.11369884,7.2180251 0.21908858,6.9135515 0.31920698,6.7146283 0.48737303,6.3805028 0.59653017,6.2419599 1.0674232,5.764988 L 1.5125168,5.3141487 1.5207904,4.6330935 C 1.5286898,3.9828357 1.5312892,3.9428328 1.5782734,3.7484658 1.8482556,2.6315883 2.6902484,1.8129894 3.8273381,1.5618895 3.9996551,1.5238373 4.0854947,1.5188042 4.67057,1.512448 L 5.3219553,1.5053714 5.7640952,1.0680187 C 6.3301565,0.50808624 6.5651426,0.3458174 7.0587365,0.1740086 7.4074189,0.05264027 7.5972817,0.02197307 8,0.02197307 c 0.4027183,0 0.5925811,0.0306672 0.9412635,0.15203553 0.4940295,0.17196047 0.728413,0.33391107 1.2964405,0.895795 l 0.44394,0.4391376 0.649586,0.00519 c 0.573633,0.00458 0.671304,0.00987 0.83534,0.045179 1.150646,0.2477044 1.987265,1.0708521 2.264406,2.227945 0.03491,0.1457673 0.04045,0.2433742 0.04799,0.8458379 l 0.0085,0.6810552 0.445094,0.4508393 c 0.471276,0.47736 0.585975,0.6229679 0.750797,0.953124 0.09816,0.1966247 0.203504,0.5026199 0.253079,0.7351254 0.04948,0.2320804 0.04948,0.8614448 0,1.0935252 -0.05015,0.2352123 -0.155542,0.5396859 -0.25566,0.7386091 -0.168166,0.3341255 -0.277323,0.4726684 -0.748216,0.9496407 l -0.445094,0.450839 -0.0085,0.681055 c -0.0075,0.602464 -0.01307,0.700071 -0.04799,0.845838 -0.276912,1.156136 -1.103785,1.970975 -2.258314,2.225446 -0.172159,0.03795 -0.258693,0.04301 -0.843232,0.04936 l -0.651385,0.0071 -0.44214,0.437352 C 9.7712207,15.391655 9.6049189,15.522809 9.2789558,15.6867 9.0817036,15.78588 8.7271056,15.903793 8.5083933,15.94294 8.2690682,15.98578 7.8414446,15.99531 7.616307,15.96284 Z M 8.2466047,14.99202 c 0.3004004,-0.03767 0.6357959,-0.171607 0.8793995,-0.351187 0.1049084,-0.07734 0.9140748,-0.881322 1.0802548,-1.073338 l 0.063,-0.07279 0.807818,0.0056 c 0.778177,0.0054 0.8138,0.0041 0.970887,-0.03631 0.320172,-0.08238 0.6248,-0.243986 0.858232,-0.455303 0.231605,-0.209665 0.451564,-0.574352 0.544773,-0.903221 0.04133,-0.14582 0.04403,-0.195597 0.05406,-0.997602 l 0.01056,-0.844125 0.489208,-0.4783371 c 0.64042,-0.6261874 0.746607,-0.759863 0.87461,-1.1010185 0.101795,-0.2713057 0.129128,-0.4470928 0.118064,-0.7592927 -0.0077,-0.216987 -0.01955,-0.3037849 -0.05999,-0.438984 C 14.873156,7.2710872 14.79795,7.1057038 14.69449,6.9518043 14.580417,6.7821155 14.538637,6.7375419 13.995797,6.2063827 L 13.515588,5.7365063 13.505027,4.8922341 C 13.49307,3.9363098 13.490264,3.915609 13.325593,3.5683453 13.080822,3.0521644 12.626063,2.6846983 12.047962,2.5359605 11.891015,2.4955802 11.854899,2.4942145 11.08614,2.4995866 L 10.287387,2.5051683 9.8682588,2.0775242 C 9.6377381,1.8423199 9.4014931,1.6030881 9.3432702,1.545898 9.0304529,1.2386301 8.6353947,1.0512442 8.1971685,1.0022736 7.7434385,0.95157055 7.2449289,1.0857178 6.8757765,1.3578557 6.7728687,1.433719 6.000545,2.2007235 5.8033362,2.4229097 l -0.073121,0.082382 -0.8075538,-0.00564 C 4.1447607,2.494212 4.1091202,2.4955453 3.9520384,2.5359605 3.2589437,2.7142845 2.7415309,3.215293 2.5490329,3.8944844 2.5077044,4.0403035 2.505007,4.0900813 2.4949732,4.8920863 L 2.4844125,5.736211 2.0096635,6.2017903 C 1.7485514,6.457859 1.5014346,6.7039022 1.4605148,6.7485529 1.2819387,6.9434114 1.1321115,7.2305427 1.0427518,7.5491607 c -0.0501315,0.1787474 -0.0501315,0.7229312 0,0.9016786 0.088598,0.315902 0.2229363,0.5754168 0.4071697,0.7865708 0.041428,0.047482 0.2911369,0.2975242 0.5549077,0.5556491 l 0.4795833,0.4693188 0.010561,0.84483 c 0.010035,0.802741 0.012728,0.852477 0.05406,0.998308 0.192498,0.679191 0.7099108,1.180199 1.4030055,1.358524 0.1570862,0.04042 0.19271,0.04175 0.9708871,0.03631 l 0.8078173,-0.0056 0.06293,0.07279 c 0.16223,0.187657 0.9785585,0.998316 1.0823409,1.074824 0.386,0.284559 0.8816165,0.411013 1.3705911,0.349701 z"
     id="path2039" />
</svg>
